<svg id="visual" viewBox="0 0 900 150" width="900" height="150" xmlns="http://www.w3.org/2000/svg" xmlns:xlink="http://www.w3.org/1999/xlink" version="1.1"><rect x="0" y="0" width="900" height="150" fill="#3f3f3f"></rect><path d="M0 62L150 28L300 32L450 62L600 58L750 25L900 52L900 151L750 151L600 151L450 151L300 151L150 151L0 151Z" fill="#fabec0"></path><path d="M0 44L150 56L300 85L450 57L600 69L750 62L900 89L900 151L750 151L600 151L450 151L300 151L150 151L0 151Z" fill="#fccecf"></path><path d="M0 80L150 76L300 73L450 72L600 79L750 75L900 74L900 151L750 151L600 151L450 151L300 151L150 151L0 151Z" fill="#fededf"></path><path d="M0 101L150 110L300 117L450 117L600 87L750 89L900 111L900 151L750 151L600 151L450 151L300 151L150 151L0 151Z" fill="#ffeeef"></path><path d="M0 114L150 123L300 112L450 109L600 110L750 136L900 128L900 151L750 151L600 151L450 151L300 151L150 151L0 151Z" fill="#ffffff"></path></svg>