<svg id="visual" viewBox="0 0 960 540" width="960" height="540" xmlns="http://www.w3.org/2000/svg" xmlns:xlink="http://www.w3.org/1999/xlink" version="1.1"><path d="M0 33L120 23L240 39L360 28L480 23L600 23L720 33L840 39L960 33L960 0L840 0L720 0L600 0L480 0L360 0L240 0L120 0L0 0Z" fill="#ffffff"></path><path d="M0 60L120 44L240 71L360 55L480 60L600 50L720 60L840 60L960 55L960 31L840 37L720 31L600 21L480 21L360 26L240 37L120 21L0 31Z" fill="#fee5e5"></path><path d="M0 131L120 109L240 125L360 136L480 141L600 98L720 109L840 136L960 114L960 53L840 58L720 58L600 48L480 58L360 53L240 69L120 42L0 58Z" fill="#fccacc"></path><path d="M0 158L120 136L240 158L360 168L480 174L600 136L720 152L840 174L960 147L960 112L840 134L720 107L600 96L480 139L360 134L240 123L120 107L0 129Z" fill="#f7b0b3"></path><path d="M0 174L120 158L240 179L360 190L480 195L600 152L720 174L840 190L960 163L960 145L840 172L720 150L600 134L480 172L360 166L240 156L120 134L0 156Z" fill="#f2969b"></path><path d="M0 217L120 212L240 217L360 239L480 244L600 185L720 206L840 244L960 195L960 161L840 188L720 172L600 150L480 193L360 188L240 177L120 156L0 172Z" fill="#ef8b92"></path><path d="M0 249L120 266L240 255L360 287L480 298L600 222L720 239L840 282L960 244L960 193L840 242L720 204L600 183L480 242L360 237L240 215L120 210L0 215Z" fill="#ef8b92"></path><path d="M0 271L120 287L240 287L360 303L480 314L600 239L720 255L840 298L960 276L960 242L840 280L720 237L600 220L480 296L360 285L240 253L120 264L0 247Z" fill="#f2969b"></path><path d="M0 406L120 417L240 422L360 395L480 438L600 341L720 384L840 384L960 379L960 274L840 296L720 253L600 237L480 312L360 301L240 285L120 285L0 269Z" fill="#f7b0b3"></path><path d="M0 487L120 498L240 503L360 498L480 509L600 487L720 492L840 503L960 503L960 377L840 382L720 382L600 339L480 436L360 393L240 420L120 415L0 404Z" fill="#fccacc"></path><path d="M0 514L120 519L240 525L360 519L480 525L600 514L720 519L840 525L960 525L960 501L840 501L720 490L600 485L480 507L360 496L240 501L120 496L0 485Z" fill="#fee5e5"></path><path d="M0 541L120 541L240 541L360 541L480 541L600 541L720 541L840 541L960 541L960 523L840 523L720 517L600 512L480 523L360 517L240 523L120 517L0 512Z" fill="#ffffff"></path></svg>