<svg id="visual" viewBox="0 0 900 150" width="900" height="150" xmlns="http://www.w3.org/2000/svg" xmlns:xlink="http://www.w3.org/1999/xlink" version="1.1"><rect x="0" y="0" width="900" height="150" fill="#3f3f3f"></rect><path d="M0 94L150 116L300 122L450 111L600 108L750 93L900 121L900 0L750 0L600 0L450 0L300 0L150 0L0 0Z" fill="#ef8b92"></path><path d="M0 96L150 65L300 84L450 96L600 55L750 82L900 66L900 0L750 0L600 0L450 0L300 0L150 0L0 0Z" fill="#f6a8ac"></path><path d="M0 55L150 57L300 81L450 46L600 58L750 40L900 68L900 0L750 0L600 0L450 0L300 0L150 0L0 0Z" fill="#fbc5c7"></path><path d="M0 50L150 60L300 27L450 36L600 38L750 53L900 41L900 0L750 0L600 0L450 0L300 0L150 0L0 0Z" fill="#fee2e3"></path><path d="M0 24L150 24L300 20L450 16L600 25L750 31L900 38L900 0L750 0L600 0L450 0L300 0L150 0L0 0Z" fill="#ffffff"></path></svg>